<svg width="19" height="19" viewBox="0 0 19 19" fill="none" xmlns="http://www.w3.org/2000/svg">
<mask id="mask0_278_247" style="mask-type:luminance" maskUnits="userSpaceOnUse" x="0" y="0" width="19" height="19">
<path d="M0.578125 0.171875H18.5781V18.1719H0.578125V0.171875Z" fill="white"/>
</mask>
<g mask="url(#mask0_278_247)">
<path fill-rule="evenodd" clip-rule="evenodd" d="M9.57813 0.171875C4.60728 0.171875 0.578125 4.20103 0.578125 9.17188C0.578125 14.1423 4.60728 18.1719 9.57813 18.1719C14.5485 18.1719 18.5781 14.1423 18.5781 9.17188C18.5781 4.20103 14.5485 0.171875 9.57813 0.171875Z" fill="#E92B2B"/>
</g>
<path fill-rule="evenodd" clip-rule="evenodd" d="M17.374 13.6719H1.78223C2.2719 14.5186 2.89593 15.2782 3.625 15.9219H15.5313C16.2603 15.2782 16.8839 14.5186 17.374 13.6719Z" fill="#FBFBFB"/>
<mask id="mask1_278_247" style="mask-type:luminance" maskUnits="userSpaceOnUse" x="0" y="9" width="19" height="3">
<path d="M0.578125 9.07764H18.5781V11.4348H0.578125V9.07764Z" fill="white"/>
</mask>
<g mask="url(#mask1_278_247)">
<path fill-rule="evenodd" clip-rule="evenodd" d="M18.5781 9.17188H0.578125C0.578125 9.94866 0.676479 10.7024 0.861468 11.4219H18.2944C18.4794 10.7024 18.5781 9.94866 18.5781 9.17188Z" fill="#FBFBFB"/>
</g>
<path fill-rule="evenodd" clip-rule="evenodd" d="M17.374 4.67188H1.78223C1.3796 5.36789 1.06738 6.12333 0.861885 6.92188H18.2948C18.0893 6.12333 17.7771 5.36789 17.374 4.67188Z" fill="#FBFBFB"/>
<mask id="mask2_278_247" style="mask-type:luminance" maskUnits="userSpaceOnUse" x="3" y="0" width="13" height="3">
<path d="M3.55846 0.171875H15.5585V2.43485H3.55846V0.171875Z" fill="white"/>
</mask>
<g mask="url(#mask2_278_247)">
<path fill-rule="evenodd" clip-rule="evenodd" d="M15.5304 2.42188H3.62416C5.21038 1.02148 7.29464 0.171875 9.57729 0.171875C11.8595 0.171875 13.9438 1.02148 15.5304 2.42188Z" fill="#FBFBFB"/>
</g>
<mask id="mask3_278_247" style="mask-type:luminance" maskUnits="userSpaceOnUse" x="0" y="0" width="9" height="10">
<path d="M0.578125 0.184814H8.70131V9.18481H0.578125V0.184814Z" fill="white"/>
</mask>
<g mask="url(#mask3_278_247)">
<path fill-rule="evenodd" clip-rule="evenodd" d="M8.67829 0.216309V9.17194H0.578125C0.578125 4.50495 4.13016 0.66748 8.67829 0.216309Z" fill="#2A2FAF"/>
</g>
<path fill-rule="evenodd" clip-rule="evenodd" d="M1.95047 4.39355H2.33468L1.80566 4.77776L2.00781 5.39969L1.5625 5.07617C1.68178 4.84263 1.81152 4.61496 1.95047 4.39355Z" fill="#FBFBFB"/>
<path fill-rule="evenodd" clip-rule="evenodd" d="M0.791573 7.21624C0.800362 7.17522 0.809988 7.13463 0.819614 7.09361H1.27623L1.47838 6.47168L1.68052 7.09361H2.33426L1.80524 7.47782L2.00739 8.09975L1.47838 7.71554L0.949357 8.09975L1.15151 7.47782L0.791573 7.21624Z" fill="#FBFBFB"/>
<path fill-rule="evenodd" clip-rule="evenodd" d="M3.78404 2.28456C4.03432 2.07363 4.29632 1.8765 4.56878 1.6936H5.03418L4.50516 2.07781L4.70731 2.69974L4.17829 2.31553L3.64928 2.69974L3.78404 2.28456Z" fill="#FBFBFB"/>
<path d="M4.17871 3.77148L4.38086 4.39342H5.0346L4.50558 4.77804L4.70773 5.39997L4.17871 5.01535L3.64969 5.39997L3.85184 4.77804L3.32282 4.39342H3.97656L4.17871 3.77148Z" fill="#FBFBFB"/>
<path d="M4.17871 6.47168L4.38086 7.09361H5.0346L4.50558 7.47782L4.70773 8.09975L4.17871 7.71554L3.64969 8.09975L3.85184 7.47782L3.32282 7.09361H3.97656L4.17871 6.47168Z" fill="#FBFBFB"/>
<path d="M6.87821 1.07178L7.08036 1.69371H7.7341L7.20508 2.07792L7.40723 2.69985L6.87821 2.31564L6.34919 2.69985L6.55134 2.07792L6.02232 1.69371H6.67606L6.87821 1.07178Z" fill="#FBFBFB"/>
<path d="M6.87821 3.77148L7.08036 4.39342H7.7341L7.20508 4.77804L7.40723 5.39997L6.87821 5.01535L6.34919 5.39997L6.55134 4.77804L6.02232 4.39342H6.67606L6.87821 3.77148Z" fill="#FBFBFB"/>
<path d="M6.87821 6.47168L7.08036 7.09361H7.7341L7.20508 7.47782L7.40723 8.09975L6.87821 7.71554L6.34919 8.09975L6.55134 7.47782L6.02232 7.09361H6.67606L6.87821 6.47168Z" fill="#FBFBFB"/>
</svg>
