<svg width="18" height="18" viewBox="0 0 18 18" fill="none" xmlns="http://www.w3.org/2000/svg">
<mask id="mask0_278_246" style="mask-type:luminance" maskUnits="userSpaceOnUse" x="0" y="0" width="18" height="18">
<path d="M0 0H18V18H0V0Z" fill="white"/>
</mask>
<g mask="url(#mask0_278_246)">
<path d="M18 9C18 13.9704 13.9704 18 9 18C4.02916 18 0 13.9704 0 9C0 4.02958 4.02916 0 9 0C13.9704 0 18 4.02958 18 9Z" fill="#009846"/>
</g>
<path d="M0.819061 8.86238L8.97071 3.59521L17.1609 8.84982L8.98787 14.1613L0.819061 8.86238Z" fill="#FFDF00"/>
<path d="M12.4499 8.84685C12.4499 10.7775 10.9039 12.3424 8.99665 12.3424C7.08984 12.3424 5.54339 10.7775 5.54339 8.84685C5.54339 6.91619 7.08984 5.35132 8.99665 5.35132C10.9039 5.35132 12.4499 6.91619 12.4499 8.84685Z" fill="#002279"/>
<path d="M8.6769 7.47165C11.0386 7.97472 12.411 9.37302 12.411 9.37302C12.3746 9.64548 12.2833 9.92673 12.2833 9.92673C10.7653 8.47319 8.86858 8.08061 8.86858 8.08061C7.17941 7.6692 5.6543 7.96552 5.6543 7.96552C5.70243 7.76839 5.83887 7.42896 5.83887 7.42896C5.83887 7.42896 6.99023 7.213 8.6769 7.47165Z" fill="white"/>
<path d="M6.17411 8.0752L6.20717 8.17857H6.31473L6.22768 8.24261L6.26116 8.34598L6.17411 8.28195L6.08706 8.34598L6.12012 8.24261L6.03307 8.17857H6.14063L6.17411 8.0752Z" fill="white"/>
<path d="M7.67411 8.86768L7.70299 8.95808H7.79674L7.72098 9.01332L7.74986 9.10372L7.67411 9.04806L7.59794 9.10372L7.62723 9.01332L7.55148 8.95808H7.64523L7.67411 8.86768Z" fill="white"/>
<path d="M6.82157 9.3938L6.83915 9.44904H6.89607L6.85003 9.48253L6.86761 9.53777L6.82157 9.50345L6.77511 9.53777L6.79311 9.48253L6.74665 9.44904H6.80399L6.82157 9.3938Z" fill="white"/>
<path d="M6.47963 9.53662L6.51646 9.65172H6.63616L6.53948 9.72287L6.57631 9.83838L6.47963 9.76681L6.38253 9.83838L6.41978 9.72287L6.32268 9.65172H6.44238L6.47963 9.53662Z" fill="white"/>
<path d="M6.05106 9.88965L6.07826 9.97461H6.16657L6.095 10.0273L6.12263 10.1123L6.05106 10.06L5.97949 10.1123L6.0067 10.0273L5.93513 9.97461H6.02385L6.05106 9.88965Z" fill="white"/>
<path d="M7.19866 9.92285L7.22587 10.0082H7.31417L7.24261 10.0605L7.27023 10.1455L7.19866 10.0932L7.12709 10.1455L7.1543 10.0605L7.08273 10.0082H7.17104L7.19866 9.92285Z" fill="white"/>
<path d="M7.09361 10.2734L7.12081 10.3588H7.20954L7.13797 10.4116L7.16518 10.4965L7.09361 10.4438L7.02204 10.4965L7.04925 10.4116L6.9781 10.3588H7.06641L7.09361 10.2734Z" fill="white"/>
<path d="M7.60421 10.5745L7.63477 10.6695H7.73354L7.6536 10.7285L7.68415 10.8235L7.60421 10.7645L7.52427 10.8235L7.55483 10.7285L7.47489 10.6695H7.57366L7.60421 10.5745Z" fill="white"/>
<path d="M8.98577 10.293L9.01632 10.388H9.11509L9.03516 10.447L9.06571 10.542L8.98577 10.4834L8.90583 10.542L8.93638 10.447L8.85645 10.388H8.95522L8.98577 10.293Z" fill="white"/>
<path d="M9.39132 9.60522L9.41978 9.69353H9.51144L9.43736 9.74794L9.4654 9.83583L9.39132 9.78142L9.31766 9.83583L9.3457 9.74794L9.27163 9.69353H9.36328L9.39132 9.60522Z" fill="white"/>
<path d="M8.98577 9.28662L9.01381 9.37451H9.10547L9.03139 9.42934L9.05985 9.51723L8.98577 9.46282L8.91169 9.51723L8.93973 9.42934L8.86607 9.37451H8.95731L8.98577 9.28662Z" fill="white"/>
<path d="M8.63714 9.60742L8.66225 9.68569H8.74303L8.67732 9.73382L8.70285 9.81166L8.63714 9.76353L8.57143 9.81166L8.59654 9.73382L8.53083 9.68569H8.61203L8.63714 9.60742Z" fill="white"/>
<path d="M8.81041 9.88721L8.82882 9.94538H8.88909L8.84054 9.98096L8.85896 10.0391L8.81041 10.0031L8.76144 10.0391L8.78028 9.98096L8.73131 9.94538H8.79158L8.81041 9.88721Z" fill="white"/>
<path d="M9.92829 8.60059L9.94671 8.65876H10.007L9.95801 8.69434L9.97684 8.75251L9.92829 8.71652L9.87932 8.75251L9.89816 8.69434L9.84961 8.65876H9.90946L9.92829 8.60059Z" fill="white"/>
<path d="M10.0605 7.60889L10.0949 7.71603H10.2062L10.1162 7.78216L10.1505 7.88972L10.0605 7.82317L9.97015 7.88972L10.0045 7.78216L9.91448 7.71603H10.0258L10.0605 7.60889Z" fill="white"/>
<path d="M11.4053 9.92993L11.4396 10.0371H11.5513L11.4614 10.1036L11.4953 10.2108L11.4053 10.1446L11.3153 10.2108L11.3496 10.1036L11.2596 10.0371H11.371L11.4053 9.92993Z" fill="white"/>
<path d="M11.3325 10.5347L11.3613 10.6242H11.4542L11.3789 10.6795L11.4078 10.7695L11.3325 10.7138L11.2571 10.7695L11.2856 10.6795L11.2102 10.6242H11.3036L11.3325 10.5347Z" fill="white"/>
<path d="M11.5467 10.2668L11.5756 10.3564H11.6685L11.5932 10.4121L11.6221 10.5016L11.5467 10.4464L11.4714 10.5016L11.5003 10.4121L11.4245 10.3564H11.5179L11.5467 10.2668Z" fill="white"/>
<path d="M11.8841 10.0037L11.9062 10.0723H11.9774L11.9196 10.1146L11.9414 10.1832L11.8841 10.1409L11.8263 10.1832L11.8485 10.1146L11.7907 10.0723H11.8619L11.8841 10.0037Z" fill="white"/>
<path d="M11.0587 10.7471L11.0809 10.8157H11.1521L11.0943 10.858L11.1165 10.9262L11.0587 10.8839L11.0014 10.9262L11.0232 10.858L10.9658 10.8157H11.0366L11.0587 10.7471Z" fill="white"/>
<path d="M10.7168 11.0059L10.7419 11.0845H10.8235L10.7578 11.1331L10.7829 11.2118L10.7168 11.1632L10.6511 11.2118L10.6762 11.1331L10.6101 11.0845H10.6917L10.7168 11.0059Z" fill="white"/>
<path d="M10.6942 10.6821L10.7151 10.747H10.7825L10.7281 10.7876L10.7486 10.8525L10.6942 10.8123L10.6394 10.8525L10.6603 10.7876L10.6055 10.747H10.6733L10.6942 10.6821Z" fill="white"/>
<path d="M10.32 10.8064L10.341 10.8717H10.4088L10.3539 10.9119L10.3749 10.9772L10.32 10.937L10.2656 10.9772L10.2861 10.9119L10.2317 10.8717H10.2995L10.32 10.8064Z" fill="white"/>
<path d="M9.75042 10.7144L9.77134 10.7796H9.83873L9.78432 10.8198L9.80483 10.8851L9.75042 10.8445L9.69559 10.8851L9.71652 10.8198L9.66169 10.7796H9.72949L9.75042 10.7144Z" fill="white"/>
<path d="M10.7151 11.3887L10.7361 11.454H10.8039L10.7486 11.4941L10.77 11.5594L10.7151 11.5193L10.6603 11.5594L10.6812 11.4941L10.6264 11.454H10.6942L10.7151 11.3887Z" fill="white"/>
<path d="M10.0266 11.0981L10.0522 11.1772H10.1342L10.0677 11.2262L10.0932 11.3053L10.0266 11.2568L9.9601 11.3053L9.98563 11.2262L9.91866 11.1772H10.0011L10.0266 11.0981Z" fill="white"/>
<path d="M8.99623 11.5366L9.00795 11.573H9.04646L9.01549 11.5961L9.0272 11.6329L8.99623 11.6103L8.96526 11.6329L8.97698 11.5961L8.94601 11.573H8.98452L8.99623 11.5366Z" fill="white"/>
<path d="M5.88951 7.67411C5.90416 7.73563 5.9548 7.7846 6.02051 7.77497C6.08705 7.76535 6.11342 7.70591 6.10044 7.63979C6.08914 7.58245 6.04185 7.52679 5.96903 7.53725C5.89662 7.54813 5.87444 7.61091 5.88951 7.67411ZM6.14565 7.63267C6.16448 7.73228 6.10714 7.79339 6.02469 7.80552C5.93973 7.81808 5.86565 7.76953 5.84389 7.68248C5.82129 7.59124 5.8736 7.52009 5.96442 7.5067C6.05692 7.4933 6.1289 7.54646 6.14565 7.63267Z" fill="#009B2D"/>
<path d="M6.39091 7.59948C6.40555 7.5978 6.4202 7.59655 6.43485 7.59571C6.48089 7.59153 6.50684 7.56725 6.50223 7.53419C6.49721 7.49652 6.46289 7.48229 6.41685 7.48606C6.39551 7.48773 6.38086 7.49066 6.37417 7.49317C6.37961 7.52875 6.38505 7.5639 6.39091 7.59948ZM6.32603 7.47099C6.3478 7.46513 6.37919 7.45969 6.40932 7.45718C6.4562 7.45299 6.48759 7.45844 6.51102 7.47308C6.52986 7.4848 6.54199 7.50405 6.54492 7.52666C6.54995 7.56516 6.52567 7.59236 6.49219 7.60576C6.49219 7.60618 6.49219 7.60659 6.49219 7.60701C6.51898 7.61245 6.53697 7.63254 6.54911 7.66226C6.56501 7.70202 6.57673 7.72964 6.5851 7.74052C6.57045 7.74136 6.55581 7.7422 6.54158 7.74345C6.5353 7.7355 6.52442 7.71123 6.50977 7.67565C6.4947 7.63589 6.47461 7.62208 6.43569 7.62417C6.4223 7.62543 6.4089 7.62668 6.39509 7.62794C6.40179 7.66979 6.40848 7.71206 6.41518 7.75392C6.40137 7.75517 6.38714 7.75643 6.37291 7.7581C6.35742 7.66226 6.34194 7.56642 6.32603 7.47099Z" fill="#009B2D"/>
<path d="M6.81655 7.69847C6.82743 7.69972 6.84333 7.69972 6.85965 7.69931C6.94964 7.6968 6.99568 7.65118 6.99065 7.57207C6.98647 7.50344 6.93834 7.45991 6.84584 7.46242C6.82324 7.46284 6.8065 7.46535 6.79478 7.46786C6.80232 7.54487 6.80943 7.62146 6.81655 7.69847ZM6.74874 7.44191C6.77469 7.43731 6.8065 7.43354 6.84124 7.43229C6.90444 7.43061 6.95047 7.44233 6.98145 7.46619C7.01325 7.48962 7.03251 7.52311 7.03544 7.57082C7.03837 7.61811 7.02372 7.65745 6.99484 7.68466C6.96638 7.71228 6.91699 7.72777 6.85421 7.72986C6.82408 7.7307 6.79897 7.73028 6.7772 7.72902C6.768 7.63318 6.75837 7.53775 6.74874 7.44191Z" fill="#009B2D"/>
<path d="M7.41127 7.59382C7.36858 7.59215 7.32547 7.59047 7.28278 7.58922C7.2832 7.62437 7.28404 7.65953 7.28488 7.69468C7.33217 7.69594 7.37904 7.69761 7.42634 7.70013C7.42634 7.71059 7.42634 7.72105 7.42634 7.73152C7.36565 7.72859 7.30455 7.72649 7.24386 7.72524C7.24093 7.62772 7.238 7.5302 7.23549 7.43311C7.29659 7.43436 7.3577 7.43645 7.4188 7.43938C7.4188 7.44985 7.4188 7.46031 7.4188 7.47077C7.37235 7.46868 7.32631 7.46701 7.27985 7.46575C7.28027 7.4963 7.28111 7.52727 7.28195 7.55824C7.32505 7.55908 7.36816 7.56076 7.41127 7.56285C7.41127 7.57331 7.41127 7.58378 7.41127 7.59382Z" fill="#009B2D"/>
<path d="M7.90639 7.64104C7.90722 7.60045 7.90764 7.55106 7.91099 7.51507C7.91057 7.51507 7.90974 7.51507 7.90932 7.51507C7.89551 7.54771 7.87918 7.58245 7.85993 7.62095C7.83733 7.66574 7.81515 7.71094 7.79339 7.75614C7.78292 7.75488 7.77246 7.75405 7.76158 7.75321C7.74693 7.70508 7.73144 7.65737 7.71554 7.60965C7.70173 7.56738 7.69001 7.52888 7.68164 7.4933C7.68122 7.4933 7.6808 7.4933 7.68038 7.4933C7.67829 7.5293 7.6741 7.57826 7.6695 7.62137C7.6649 7.66281 7.66029 7.70424 7.65611 7.74568C7.64272 7.74484 7.62932 7.744 7.61635 7.74275C7.62639 7.64607 7.63727 7.54939 7.64816 7.45312C7.66699 7.45438 7.68582 7.45564 7.70424 7.45731C7.7214 7.50586 7.73856 7.55441 7.75488 7.60338C7.7666 7.64021 7.77623 7.67327 7.78292 7.70424C7.78334 7.70424 7.78376 7.70424 7.78418 7.70424C7.79422 7.67578 7.80762 7.64481 7.82436 7.60965C7.84696 7.56487 7.86998 7.52009 7.89299 7.47531C7.91183 7.4774 7.93024 7.47949 7.94866 7.48158C7.94824 7.5791 7.94698 7.67662 7.94615 7.77414C7.93234 7.77246 7.91894 7.77079 7.90555 7.76953C7.90597 7.72642 7.90639 7.68373 7.90639 7.64104Z" fill="#009B2D"/>
<path d="M8.58524 7.7387C8.54339 7.72991 8.50112 7.72196 8.45926 7.71401C8.4534 7.74833 8.44796 7.78306 8.44252 7.81738C8.48898 7.82575 8.53502 7.83496 8.58105 7.84417C8.57938 7.85463 8.57729 7.86509 8.57561 7.87514C8.51618 7.863 8.45633 7.8517 8.39648 7.84082C8.41113 7.7454 8.42578 7.64955 8.44043 7.55371C8.50028 7.56459 8.56013 7.57631 8.61998 7.58845C8.6183 7.59849 8.61621 7.60896 8.61454 7.61942C8.56934 7.61021 8.52372 7.601 8.47852 7.59263C8.47349 7.62319 8.46889 7.65332 8.46387 7.68345C8.50656 7.69141 8.54883 7.69936 8.5911 7.70815C8.58901 7.71819 8.58733 7.72824 8.58524 7.7387Z" fill="#009B2D"/>
<path d="M9.08622 7.84619C9.09501 7.8508 9.10589 7.85498 9.1197 7.85875C9.16908 7.87256 9.2055 7.86 9.21638 7.82192C9.22684 7.78509 9.20173 7.7583 9.15527 7.74533C9.13686 7.7403 9.12263 7.73779 9.11468 7.73737C9.10547 7.77379 9.09584 7.8102 9.08622 7.84619ZM9.07952 7.69971C9.10045 7.70222 9.12807 7.70682 9.16197 7.71645C9.2034 7.72775 9.23145 7.74533 9.24651 7.76542C9.26116 7.78425 9.26535 7.80727 9.25865 7.83196C9.25112 7.85749 9.23689 7.87465 9.2168 7.8847C9.18917 7.89809 9.15109 7.89851 9.11091 7.88721C9.09877 7.88386 9.08747 7.88051 9.07868 7.87591C9.06864 7.91316 9.05901 7.95082 9.04897 7.98807C9.03557 7.98472 9.02218 7.98096 9.00879 7.97719C9.03223 7.8847 9.05566 7.7922 9.07952 7.69971Z" fill="#009B2D"/>
<path d="M9.48047 7.95731C9.4947 7.96191 9.50851 7.96652 9.52232 7.97112C9.56585 7.98577 9.60059 7.97489 9.61147 7.9435C9.6236 7.90834 9.59933 7.88239 9.5558 7.86733C9.53571 7.86063 9.52107 7.85728 9.51395 7.85686C9.50265 7.89035 9.49177 7.92383 9.48047 7.95731ZM9.48047 7.81836C9.50265 7.82171 9.53362 7.82924 9.56208 7.83929C9.60645 7.85393 9.63281 7.87068 9.64704 7.89328C9.65876 7.91127 9.66127 7.93304 9.65374 7.95396C9.64076 7.98996 9.60603 8.0046 9.56961 8.00293C9.56961 8.00335 9.56961 8.00377 9.56961 8.00419C9.59096 8.01967 9.59849 8.04436 9.59598 8.07533C9.59263 8.11677 9.59012 8.14565 9.59263 8.15862C9.57924 8.1536 9.56543 8.149 9.55204 8.14397C9.54953 8.13477 9.5512 8.10882 9.55413 8.07157C9.55831 8.03055 9.5466 8.01046 9.51018 7.99707C9.49721 7.99289 9.48465 7.98828 9.4721 7.98451C9.45871 8.02386 9.44573 8.06362 9.43276 8.10338C9.41936 8.09919 9.40597 8.09459 9.39258 8.0904C9.42229 7.99958 9.45117 7.90918 9.48047 7.81836Z" fill="#009B2D"/>
<path d="M9.85129 8.1023C9.82827 8.15963 9.84333 8.22492 9.90444 8.24962C9.96596 8.27431 10.0229 8.23915 10.0492 8.17889C10.0723 8.12615 10.0643 8.05751 9.99651 8.02989C9.92913 8.00269 9.87472 8.04286 9.85129 8.1023ZM10.0915 8.19521C10.0509 8.28603 9.96722 8.30779 9.89063 8.27682C9.81153 8.24459 9.77637 8.16842 9.80818 8.08639C9.84124 8.00059 9.92578 7.96837 10.0103 8.00227C10.0965 8.03742 10.1267 8.11694 10.0915 8.19521Z" fill="#009B2D"/>
<path d="M10.4431 8.50654C10.423 8.50361 10.3853 8.49565 10.3456 8.47682C10.3016 8.45506 10.2698 8.42785 10.2526 8.39019C10.2376 8.3567 10.2384 8.31443 10.2577 8.27384C10.2953 8.19557 10.3862 8.16711 10.4891 8.21692C10.5243 8.23408 10.5485 8.25416 10.559 8.2663C10.5511 8.27384 10.5431 8.28095 10.5352 8.28848C10.5222 8.27425 10.5046 8.25919 10.474 8.24454C10.3996 8.20855 10.3313 8.22571 10.2999 8.291C10.2677 8.35754 10.2941 8.41739 10.3623 8.45004C10.3874 8.46217 10.4058 8.46761 10.4167 8.46803C10.4297 8.4425 10.4431 8.41697 10.4565 8.39144C10.4364 8.3814 10.4163 8.37135 10.3962 8.36173C10.4008 8.35294 10.405 8.34373 10.4096 8.33494C10.4427 8.35084 10.4753 8.36717 10.5084 8.38349C10.4862 8.42451 10.4648 8.46552 10.4431 8.50654Z" fill="#009B2D"/>
<path d="M10.7369 8.50042C10.7499 8.50753 10.7628 8.51465 10.7758 8.52176C10.816 8.54395 10.8528 8.53934 10.87 8.51088C10.8897 8.47907 10.8704 8.44936 10.8298 8.42676C10.8114 8.41671 10.7976 8.41085 10.7905 8.40918C10.7725 8.43931 10.7549 8.47028 10.7369 8.50042ZM10.7649 8.36523C10.7863 8.37235 10.8156 8.38574 10.8419 8.40039C10.8834 8.42299 10.906 8.44434 10.916 8.46861C10.924 8.48786 10.9219 8.50963 10.9102 8.52888C10.8901 8.56152 10.8524 8.56948 10.8164 8.5611C10.8164 8.56152 10.816 8.56194 10.816 8.56236C10.8344 8.58119 10.8369 8.60672 10.8277 8.63644C10.816 8.6762 10.808 8.70382 10.808 8.7168C10.7955 8.70968 10.7829 8.70257 10.7704 8.69545C10.77 8.68583 10.7766 8.66071 10.7871 8.62514C10.7992 8.58622 10.7917 8.56445 10.7582 8.54436C10.7465 8.53809 10.7348 8.53139 10.7227 8.52511C10.7017 8.56152 10.6804 8.59752 10.6595 8.63393C10.6473 8.62723 10.6348 8.62054 10.6226 8.61426C10.6699 8.53097 10.7176 8.44852 10.7649 8.36523Z" fill="#009B2D"/>
<path d="M11.196 8.79143C11.1596 8.76842 11.1228 8.7454 11.0859 8.7228C11.0667 8.75209 11.047 8.78097 11.0278 8.81027C11.0679 8.83496 11.1081 8.86007 11.1479 8.8856C11.142 8.89439 11.1357 8.90276 11.1299 8.91155C11.0784 8.87849 11.0265 8.84626 10.9742 8.81445C11.0278 8.73368 11.0809 8.65248 11.1345 8.57129C11.1868 8.6031 11.2391 8.63574 11.291 8.66881C11.2847 8.67759 11.2785 8.68597 11.2726 8.69475C11.2337 8.66964 11.1943 8.64495 11.1546 8.62068C11.1374 8.64621 11.1203 8.67132 11.1035 8.69685C11.1403 8.71987 11.1772 8.74289 11.2136 8.7659C11.2077 8.77469 11.2019 8.78306 11.196 8.79143Z" fill="#009B2D"/>
<path d="M11.3195 8.98188C11.3287 9.00071 11.3467 9.02331 11.3705 9.04005C11.4061 9.06475 11.4396 9.06349 11.4576 9.04005C11.4743 9.01871 11.4693 8.99611 11.4421 8.95802C11.4074 8.91366 11.394 8.87515 11.4187 8.84209C11.4459 8.80568 11.5028 8.80317 11.5572 8.84125C11.5857 8.86134 11.6024 8.88143 11.6099 8.89608C11.6003 8.90194 11.5907 8.9078 11.5811 8.91324C11.5752 8.90278 11.5622 8.88269 11.5371 8.86511C11.499 8.83874 11.4697 8.84753 11.4576 8.86343C11.4413 8.8852 11.4501 8.9078 11.4785 8.9463C11.5133 8.99402 11.5216 9.02959 11.4948 9.06307C11.4668 9.09823 11.4124 9.10702 11.3492 9.06307C11.3232 9.04508 11.2998 9.01913 11.2914 9.00113C11.3011 8.99443 11.3103 8.98816 11.3195 8.98188Z" fill="#009B2D"/>
<path d="M11.6342 9.20762C11.6426 9.2273 11.6589 9.25073 11.6823 9.26873C11.7167 9.2951 11.7501 9.29593 11.7698 9.27333C11.7878 9.25324 11.7845 9.23022 11.7585 9.19088C11.7267 9.14485 11.7154 9.1055 11.7422 9.07411C11.7711 9.03896 11.8284 9.0398 11.8811 9.08081C11.9088 9.10216 11.9238 9.1235 11.9314 9.13815C11.9209 9.14359 11.9113 9.14861 11.9012 9.15405C11.8958 9.14317 11.8837 9.12224 11.8594 9.10341C11.8225 9.07453 11.7928 9.08248 11.7803 9.09755C11.7623 9.11806 11.7698 9.14066 11.7962 9.18126C11.8284 9.23064 11.8347 9.26664 11.8058 9.29886C11.7757 9.33235 11.7204 9.33779 11.6597 9.29049C11.6346 9.27124 11.6124 9.24404 11.6053 9.22562C11.615 9.21976 11.6246 9.21348 11.6342 9.20762Z" fill="#009B2D"/>
<path d="M12.0306 9.39963C11.987 9.44525 11.9774 9.51012 12.0276 9.55448C12.0783 9.59885 12.1465 9.58587 12.1942 9.53942C12.2365 9.49882 12.254 9.43185 12.1984 9.3833C12.1431 9.33476 12.0749 9.35317 12.0306 9.39963ZM12.2298 9.56913C12.1561 9.63902 12.067 9.62982 12.0042 9.57457C11.9389 9.51765 11.9335 9.4352 11.9946 9.37033C12.0586 9.30253 12.1523 9.30169 12.2218 9.36238C12.2925 9.42474 12.293 9.50886 12.2298 9.56913Z" fill="#009B2D"/>
</svg>
