<svg width="16" height="16" viewBox="0 0 16 16" fill="none" xmlns="http://www.w3.org/2000/svg">
<g clip-path="url(#clip0_380_2)">
<path d="M11.742 10.3441C12.7103 9.02279 13.144 7.38459 12.9563 5.75725C12.7686 4.12991 11.9734 2.63344 10.7298 1.56723C9.48612 0.501022 7.88575 -0.0562959 6.24884 0.00677721C4.61192 0.0698504 3.05919 0.748663 1.90127 1.90741C0.743353 3.06615 0.0656519 4.61938 0.00375008 6.25633C-0.0581517 7.89329 0.500311 9.49326 1.56741 10.7361C2.63451 11.979 4.13155 12.7732 5.75902 12.9597C7.38649 13.1462 9.02438 12.7113 10.345 11.7421H10.344C10.3733 11.7821 10.406 11.8204 10.442 11.8571L14.292 15.7071C14.4795 15.8947 14.7339 16.0002 14.9991 16.0003C15.2644 16.0004 15.5189 15.8951 15.7065 15.7076C15.8941 15.5201 15.9996 15.2657 15.9997 15.0005C15.9998 14.7352 15.8945 14.4807 15.707 14.2931L11.857 10.4431C11.8213 10.4069 11.7828 10.3745 11.742 10.3441ZM12 6.5001C12 7.22237 11.8577 7.93757 11.5813 8.60486C11.3049 9.27215 10.8998 9.87847 10.3891 10.3892C9.87837 10.8999 9.27205 11.305 8.60476 11.5814C7.93747 11.8578 7.22227 12.0001 6.5 12.0001C5.77773 12.0001 5.06253 11.8578 4.39524 11.5814C3.72795 11.305 3.12164 10.8999 2.61091 10.3892C2.10019 9.87847 1.69506 9.27215 1.41866 8.60486C1.14226 7.93757 1 7.22237 1 6.5001C1 5.04141 1.57946 3.64246 2.61091 2.61101C3.64236 1.57956 5.04131 1.0001 6.5 1.0001C7.95869 1.0001 9.35764 1.57956 10.3891 2.61101C11.4205 3.64246 12 5.04141 12 6.5001Z" fill="black"/>
</g>
<defs>
<clipPath id="clip0_380_2">
<rect width="16" height="16" fill="white"/>
</clipPath>
</defs>
</svg>
