<svg width="16" height="17" viewBox="0 0 16 17" fill="none" xmlns="http://www.w3.org/2000/svg">
<path d="M4.00004 15.1667V12.3334C3.56671 12.1445 3.18615 11.8917 2.85837 11.575C2.5306 11.2584 2.25282 10.9 2.02504 10.5C1.79726 10.1 1.62504 9.67226 1.50837 9.21671C1.39171 8.76115 1.33337 8.30004 1.33337 7.83337C1.33337 6.07782 1.9556 4.63893 3.20004 3.51671C4.44448 2.39449 6.04448 1.83337 8.00004 1.83337C9.9556 1.83337 11.5556 2.39449 12.8 3.51671C14.0445 4.63893 14.6667 6.07782 14.6667 7.83337C14.6667 8.30004 14.6084 8.76115 14.4917 9.21671C14.375 9.67226 14.2028 10.1 13.975 10.5C13.7473 10.9 13.4695 11.2584 13.1417 11.575C12.8139 11.8917 12.4334 12.1445 12 12.3334V15.1667H4.00004ZM5.33337 13.8334H6.00004V12.5H7.33337V13.8334H8.66671V12.5H10V13.8334H10.6667V11.4667C11.0889 11.3667 11.4639 11.2 11.7917 10.9667C12.1195 10.7334 12.3973 10.4556 12.625 10.1334C12.8528 9.81115 13.0278 9.4556 13.15 9.06671C13.2723 8.67782 13.3334 8.26671 13.3334 7.83337C13.3334 6.44448 12.8417 5.31948 11.8584 4.45837C10.875 3.59726 9.58893 3.16671 8.00004 3.16671C6.41115 3.16671 5.12504 3.59726 4.14171 4.45837C3.15837 5.31948 2.66671 6.44448 2.66671 7.83337C2.66671 8.26671 2.72782 8.67782 2.85004 9.06671C2.97226 9.4556 3.14726 9.81115 3.37504 10.1334C3.60282 10.4556 3.88337 10.7334 4.21671 10.9667C4.55004 11.2 4.92226 11.3667 5.33337 11.4667V13.8334ZM7.00004 10.5H9.00004L8.00004 8.50004L7.00004 10.5ZM5.66671 9.16671C6.03337 9.16671 6.34726 9.03615 6.60837 8.77504C6.86948 8.51393 7.00004 8.20004 7.00004 7.83337C7.00004 7.46671 6.86948 7.15282 6.60837 6.89171C6.34726 6.6306 6.03337 6.50004 5.66671 6.50004C5.30004 6.50004 4.98615 6.6306 4.72504 6.89171C4.46393 7.15282 4.33337 7.46671 4.33337 7.83337C4.33337 8.20004 4.46393 8.51393 4.72504 8.77504C4.98615 9.03615 5.30004 9.16671 5.66671 9.16671ZM10.3334 9.16671C10.7 9.16671 11.0139 9.03615 11.275 8.77504C11.5362 8.51393 11.6667 8.20004 11.6667 7.83337C11.6667 7.46671 11.5362 7.15282 11.275 6.89171C11.0139 6.6306 10.7 6.50004 10.3334 6.50004C9.96671 6.50004 9.65282 6.6306 9.39171 6.89171C9.1306 7.15282 9.00004 7.46671 9.00004 7.83337C9.00004 8.20004 9.1306 8.51393 9.39171 8.77504C9.65282 9.03615 9.96671 9.16671 10.3334 9.16671Z" fill="white"/>
</svg>
