<svg width="156" height="43" viewBox="0 0 156 43" fill="none" xmlns="http://www.w3.org/2000/svg">
<path d="M12.474 2.634C14.686 2.634 16.576 3.012 18.144 3.768C19.712 4.496 20.916 5.56 21.756 6.96C22.624 8.36 23.058 10.054 23.058 12.042C23.058 13.246 22.876 14.436 22.512 15.612C22.148 16.76 21.56 17.81 20.748 18.762C19.964 19.686 18.928 20.428 17.64 20.988C16.352 21.548 14.784 21.828 12.936 21.828H8.442V33H4.368V2.634H12.474ZM12.894 17.922C14.098 17.922 15.092 17.726 15.876 17.334C16.66 16.942 17.276 16.452 17.724 15.864C18.172 15.248 18.494 14.604 18.69 13.932C18.886 13.26 18.984 12.658 18.984 12.126C18.984 11.51 18.886 10.88 18.69 10.236C18.494 9.564 18.158 8.962 17.682 8.43C17.234 7.87 16.632 7.422 15.876 7.086C15.148 6.722 14.238 6.54 13.146 6.54H8.442V17.922H12.894ZM26.8685 24.138C26.8685 22.402 27.2745 20.834 28.0865 19.434C28.9265 18.034 30.0745 16.928 31.5305 16.116C32.9865 15.304 34.6385 14.898 36.4865 14.898C38.3905 14.898 40.0565 15.304 41.4845 16.116C42.9125 16.928 44.0185 18.034 44.8025 19.434C45.5865 20.834 45.9785 22.402 45.9785 24.138C45.9785 25.874 45.5865 27.456 44.8025 28.884C44.0185 30.284 42.8985 31.39 41.4425 32.202C40.0145 33.014 38.3485 33.42 36.4445 33.42C34.5965 33.42 32.9445 33.042 31.4885 32.286C30.0605 31.502 28.9265 30.424 28.0865 29.052C27.2745 27.652 26.8685 26.014 26.8685 24.138ZM30.7745 24.18C30.7745 25.3 31.0265 26.322 31.5305 27.246C32.0345 28.142 32.7065 28.856 33.5465 29.388C34.4145 29.92 35.3665 30.186 36.4025 30.186C37.4945 30.186 38.4605 29.92 39.3005 29.388C40.1685 28.856 40.8405 28.142 41.3165 27.246C41.7925 26.322 42.0305 25.3 42.0305 24.18C42.0305 23.06 41.7925 22.052 41.3165 21.156C40.8405 20.232 40.1685 19.504 39.3005 18.972C38.4605 18.412 37.4945 18.132 36.4025 18.132C35.3385 18.132 34.3725 18.412 33.5045 18.972C32.6645 19.532 31.9925 20.274 31.4885 21.198C31.0125 22.094 30.7745 23.088 30.7745 24.18ZM51.2672 33V0.491998H55.1732V33H51.2672ZM59.3732 21.45L67.3532 33H62.7752L56.7692 23.634L59.3732 21.45ZM53.9552 27.456L53.5772 23.718L64.1192 15.234L66.5132 17.292L53.9552 27.456ZM79.593 33.42C77.605 33.42 75.897 33.028 74.469 32.244C73.041 31.432 71.935 30.34 71.151 28.968C70.395 27.568 70.017 25.972 70.017 24.18C70.017 22.472 70.451 20.918 71.319 19.518C72.187 18.118 73.349 16.998 74.805 16.158C76.261 15.318 77.885 14.898 79.677 14.898C81.973 14.898 83.877 15.57 85.389 16.914C86.901 18.258 87.923 20.106 88.455 22.458L74.133 27.498L73.209 25.188L84.969 20.904L84.129 21.45C83.793 20.526 83.233 19.728 82.449 19.056C81.665 18.356 80.643 18.006 79.383 18.006C78.319 18.006 77.367 18.272 76.527 18.804C75.687 19.308 75.029 20.008 74.553 20.904C74.077 21.8 73.839 22.822 73.839 23.97C73.839 25.174 74.091 26.238 74.595 27.162C75.099 28.058 75.785 28.772 76.653 29.304C77.549 29.808 78.557 30.06 79.677 30.06C80.433 30.06 81.161 29.92 81.861 29.64C82.589 29.36 83.261 28.996 83.877 28.548L85.683 31.446C84.815 32.034 83.835 32.51 82.743 32.874C81.679 33.238 80.629 33.42 79.593 33.42ZM84.171 6.75L78.837 12.378H76.359L79.845 6.75H84.171ZM100.405 33.42C98.8093 33.42 97.3533 33.042 96.0373 32.286C94.7493 31.502 93.7273 30.41 92.9713 29.01C92.2153 27.582 91.8373 25.944 91.8373 24.096C91.8373 22.164 92.2293 20.512 93.0133 19.14C93.8253 17.768 94.9173 16.718 96.2893 15.99C97.6613 15.262 99.2013 14.898 100.909 14.898C102.281 14.898 103.583 15.192 104.815 15.78C106.075 16.368 107.055 17.18 107.755 18.216L107.587 19.602V0.491998H111.451V33H107.545V28.674L107.965 29.766C107.153 30.83 106.103 31.712 104.815 32.412C103.527 33.084 102.057 33.42 100.405 33.42ZM101.623 30.102C102.659 30.102 103.583 29.92 104.395 29.556C105.207 29.164 105.879 28.632 106.411 27.96C106.943 27.288 107.321 26.49 107.545 25.566V22.29C107.321 21.45 106.915 20.722 106.327 20.106C105.767 19.462 105.081 18.958 104.269 18.594C103.485 18.202 102.603 18.006 101.623 18.006C100.559 18.006 99.5793 18.272 98.6833 18.804C97.8153 19.308 97.1153 20.008 96.5833 20.904C96.0513 21.8 95.7853 22.836 95.7853 24.012C95.7853 25.16 96.0513 26.196 96.5833 27.12C97.1153 28.016 97.8293 28.744 98.7253 29.304C99.6213 29.836 100.587 30.102 101.623 30.102ZM126.31 33.42C124.322 33.42 122.614 33.028 121.186 32.244C119.758 31.432 118.652 30.34 117.868 28.968C117.112 27.568 116.734 25.972 116.734 24.18C116.734 22.472 117.168 20.918 118.036 19.518C118.904 18.118 120.066 16.998 121.522 16.158C122.978 15.318 124.602 14.898 126.394 14.898C128.69 14.898 130.594 15.57 132.106 16.914C133.618 18.258 134.64 20.106 135.172 22.458L120.85 27.498L119.926 25.188L131.686 20.904L130.846 21.45C130.51 20.526 129.95 19.728 129.166 19.056C128.382 18.356 127.36 18.006 126.1 18.006C125.036 18.006 124.084 18.272 123.244 18.804C122.404 19.308 121.746 20.008 121.27 20.904C120.794 21.8 120.556 22.822 120.556 23.97C120.556 25.174 120.808 26.238 121.312 27.162C121.816 28.058 122.502 28.772 123.37 29.304C124.266 29.808 125.274 30.06 126.394 30.06C127.15 30.06 127.878 29.92 128.578 29.64C129.306 29.36 129.978 28.996 130.594 28.548L132.4 31.446C131.532 32.034 130.552 32.51 129.46 32.874C128.396 33.238 127.346 33.42 126.31 33.42ZM146.126 22.08L150.284 15.612H154.232L147.554 24.936L146.126 22.08ZM154.904 33H150.2L136.97 15.612H141.8L154.904 33ZM145.706 26.532L141.128 33H137.18L143.816 23.928L145.706 26.532Z" fill="black"/>
<path d="M37.0222 28.3874C35.3902 28.3874 34.0288 27.232 33.7056 25.6969H28.2762C28.66 30.1608 32.4048 33.6632 36.9657 33.6632C41.5265 33.6632 45.2754 30.1608 45.6551 25.6969H40.3389C40.0157 27.236 38.6543 28.3874 37.0222 28.3874Z" fill="white"/>
<path d="M38.9613 33.437C42.5809 32.5887 45.3319 29.4902 45.6551 25.6969H43.5141C43.3 29.1387 41.4942 32.0554 38.9613 33.437Z" fill="#DFDFDF"/>
<path d="M39.0219 24.9979C39.0179 24.9979 39.0179 24.9979 39.0219 24.9979C39.0179 24.7515 38.9734 24.5172 38.8926 24.2991C38.6098 23.5396 37.8787 23.0023 37.0222 23.0023C36.1658 23.0023 35.4346 23.5436 35.1518 24.2991C35.071 24.5172 35.0266 24.7515 35.0266 24.9979H35.0307C35.0307 25.2444 35.0751 25.4787 35.1559 25.6968C35.4387 26.4563 36.1699 26.9936 37.0263 26.9936C37.8827 26.9936 38.6139 26.4522 38.8967 25.6968C38.9775 25.4827 39.0219 25.2444 39.0219 24.9979Z" fill="white"/>
<path d="M37.0263 21.6127C38.6584 21.6127 40.0198 22.768 40.3429 24.3031H45.7723C45.3886 19.8352 41.6437 16.3328 37.0789 16.3328C32.514 16.3328 28.7732 19.8352 28.3894 24.2991H33.7097C34.0329 22.764 35.3943 21.6127 37.0263 21.6127Z" fill="#FF1C1C"/>
<path d="M43.5141 24.2991H45.7682C45.437 20.4411 42.593 17.2982 38.8805 16.5186C41.4578 17.8799 43.2959 20.8249 43.5141 24.2991Z" fill="#DF1818"/>
<path d="M37.0788 16.3328C41.6436 16.3328 45.3885 19.8353 45.7682 24.2992H40.3388C40.0156 22.7641 38.6543 21.6087 37.0222 21.6087C35.3902 21.6087 34.0288 22.7641 33.7056 24.2992H28.3893C28.7731 19.8353 32.5179 16.3328 37.0788 16.3328ZM38.8926 24.2992C38.9734 24.5173 39.0178 24.7516 39.0178 24.998H39.0219C39.0219 25.2445 38.9774 25.4788 38.8966 25.6969C38.6139 26.4564 37.8827 26.9937 37.0262 26.9937C36.1698 26.9937 35.4386 26.4523 35.1558 25.6969C35.0751 25.4788 35.0306 25.2445 35.0306 24.998H35.0266C35.0266 24.7516 35.071 24.5173 35.1518 24.2992C35.4346 23.5397 36.1658 23.0024 37.0222 23.0024C37.8786 23.0024 38.6098 23.5437 38.8926 24.2992ZM36.9656 33.6673C32.4008 33.6673 28.6559 30.1648 28.2762 25.7009H33.7056C34.0288 27.236 35.3902 28.3914 37.0222 28.3914C38.6543 28.3914 40.0156 27.236 40.3388 25.7009H45.6591C45.2754 30.1608 41.5305 33.6673 36.9656 33.6673ZM37.0222 14.6685C31.3181 14.6685 26.6926 19.2939 26.6926 24.998C26.6926 30.7021 31.3181 35.3276 37.0222 35.3276C42.7263 35.3276 47.3558 30.7062 47.3558 24.998C47.3558 19.2899 42.7303 14.6685 37.0222 14.6685Z" fill="black"/>
</svg>
